<?xml version="1.0" encoding="UTF-8" standalone="no"?>
<svg
   viewBox="0 0 588.021 588.02099"
   version="1.1"
   id="svg1"
   sodipodi:docname="discord.svg"
   width="588.021"
   height="588.021"
   inkscape:version="1.4 (e7c3feb100, 2024-10-09)"
   xmlns:inkscape="http://www.inkscape.org/namespaces/inkscape"
   xmlns:sodipodi="http://sodipodi.sourceforge.net/DTD/sodipodi-0.dtd"
   xmlns="http://www.w3.org/2000/svg"
   xmlns:svg="http://www.w3.org/2000/svg">
  <defs
     id="defs1" />
  <sodipodi:namedview
     id="namedview1"
     pagecolor="#ffffff"
     bordercolor="#000000"
     borderopacity="0.25"
     inkscape:showpageshadow="2"
     inkscape:pageopacity="0.0"
     inkscape:pagecheckerboard="0"
     inkscape:deskcolor="#d1d1d1"
     inkscape:zoom="1.6074219"
     inkscape:cx="293.63791"
     inkscape:cy="224.27217"
     inkscape:window-width="1920"
     inkscape:window-height="1022"
     inkscape:window-x="0"
     inkscape:window-y="0"
     inkscape:window-maximized="1"
     inkscape:current-layer="svg1" />
  <!--!Font Awesome Free 6.7.2 by @fontawesome - https://fontawesome.com License - https://fontawesome.com/license/free Copyright 2025 Fonticons, Inc.-->
  <path
     d="m 498.51127,107.83279 a 1.5,1.5 0 0 0 -0.8,-0.7 485.1,485.1 0 0 0 -119.6,-37.099999 1.8,1.8 0 0 0 -1.9,0.9 337.5,337.5 0 0 0 -14.9,30.599999 447.8,447.8 0 0 0 -134.4,0 309.5,309.5 0 0 0 -15.1,-30.599999 1.9,1.9 0 0 0 -1.9,-0.9 483.7,483.7 0 0 0 -119.800001,37.099999 1.7,1.7 0 0 0 -0.8,0.7 c -76.2,113.9 -97.1000005,224.9 -86.9000005,334.6 a 2,2 0 0 0 0.8,1.4 487.7,487.7 0 0 0 146.8000015,74.1 1.9,1.9 0 0 0 2.1,-0.7 348.2,348.2 0 0 0 30,-48.8 1.9,1.9 0 0 0 -1,-2.6 321.2,321.2 0 0 1 -45.9,-21.9 1.9,1.9 0 0 1 -0.2,-3.1 c 3.1,-2.3 6.2,-4.7 9.1,-7.1 a 1.8,1.8 0 0 1 1.9,-0.3 c 96.2,43.9 200.4,43.9 295.5,0 a 1.8,1.8 0 0 1 1.9,0.2 c 2.9,2.4 6,4.9 9.1,7.2 a 1.9,1.9 0 0 1 -0.2,3.1 301.4,301.4 0 0 1 -45.9,21.8 1.9,1.9 0 0 0 -1,2.6 391.1,391.1 0 0 0 30,48.8 1.9,1.9 0 0 0 2.1,0.7 486,486 0 0 0 147.2,-74.1 1.9,1.9 0 0 0 0.8,-1.4 c 12.2,-126.7 -20.6,-236.8 -87,-334.5 z m -302,267.8 c -29,0 -52.8,-26.6 -52.8,-59.2 0,-32.6 23.4,-59.3 52.8,-59.3 29.7,0 53.3,26.8 52.8,59.2 0,32.7 -23.4,59.3 -52.8,59.3 z m 195.4,0 c -29,0 -52.8,-26.6 -52.8,-59.2 0,-32.6 23.3,-59.3 52.8,-59.3 29.7,0 53.3,26.8 52.8,59.2 0,32.7 -23.2,59.3 -52.8,59.3 z"
     id="path1" />
</svg>
