<?xml version="1.0" encoding="UTF-8" standalone="no"?>
<svg
   viewBox="0 0 512 512"
   version="1.1"
   id="svg1"
   sodipodi:docname="newspaper.svg"
   width="512"
   height="512"
   inkscape:version="1.4 (e7c3feb100, 2024-10-09)"
   xmlns:inkscape="http://www.inkscape.org/namespaces/inkscape"
   xmlns:sodipodi="http://sodipodi.sourceforge.net/DTD/sodipodi-0.dtd"
   xmlns="http://www.w3.org/2000/svg"
   xmlns:svg="http://www.w3.org/2000/svg">
  <defs
     id="defs1" />
  <sodipodi:namedview
     id="namedview1"
     pagecolor="#ffffff"
     bordercolor="#000000"
     borderopacity="0.25"
     inkscape:showpageshadow="2"
     inkscape:pageopacity="0.0"
     inkscape:pagecheckerboard="0"
     inkscape:deskcolor="#d1d1d1"
     inkscape:zoom="1.6074219"
     inkscape:cx="256.31106"
     inkscape:cy="224.27217"
     inkscape:window-width="1920"
     inkscape:window-height="1022"
     inkscape:window-x="0"
     inkscape:window-y="0"
     inkscape:window-maximized="1"
     inkscape:current-layer="svg1" />
  <!--!Font Awesome Free 6.7.2 by @fontawesome - https://fontawesome.com License - https://fontawesome.com/license/free Copyright 2025 Fonticons, Inc.-->
  <path
     d="m 96,96 c 0,-35.3 28.7,-64 64,-64 h 288 c 35.3,0 64,28.7 64,64 v 320 c 0,35.3 -28.7,64 -64,64 H 80 C 35.8,480 0,444.2 0,400 V 128 c 0,-17.7 14.3,-32 32,-32 17.7,0 32,14.3 32,32 v 272 c 0,8.8 7.2,16 16,16 8.8,0 16,-7.2 16,-16 z m 64,24 v 80 c 0,13.3 10.7,24 24,24 h 112 c 13.3,0 24,-10.7 24,-24 V 120 C 320,106.7 309.3,96 296,96 H 184 c -13.3,0 -24,10.7 -24,24 z m 208,-8 c 0,8.8 7.2,16 16,16 h 48 c 8.8,0 16,-7.2 16,-16 0,-8.8 -7.2,-16 -16,-16 h -48 c -8.8,0 -16,7.2 -16,16 z m 0,96 c 0,8.8 7.2,16 16,16 h 48 c 8.8,0 16,-7.2 16,-16 0,-8.8 -7.2,-16 -16,-16 h -48 c -8.8,0 -16,7.2 -16,16 z m -208,96 c 0,8.8 7.2,16 16,16 h 256 c 8.8,0 16,-7.2 16,-16 0,-8.8 -7.2,-16 -16,-16 H 176 c -8.8,0 -16,7.2 -16,16 z m 0,96 c 0,8.8 7.2,16 16,16 h 256 c 8.8,0 16,-7.2 16,-16 0,-8.8 -7.2,-16 -16,-16 H 176 c -8.8,0 -16,7.2 -16,16 z"
     id="path1" />
</svg>
