<svg xmlns="http://www.w3.org/2000/svg" xmlns:xlink="http://www.w3.org/1999/xlink" viewBox="0 0 960 960"><defs><linearGradient id="b"><stop offset="0" stop-color="#4d4d4d"/><stop offset="1" stop-color="#212121" stop-opacity="0"/></linearGradient><linearGradient id="c"><stop offset="0" stop-color="#eee"/><stop offset="1" stop-color="#c7c7c7"/></linearGradient><linearGradient id="d"><stop offset="0" stop-color="#303030"/><stop offset="1" stop-color="#101010"/></linearGradient><linearGradient id="a"><stop offset="0" stop-color="#ddd"/><stop offset="1" stop-color="#bbb"/></linearGradient><linearGradient xlink:href="#a" id="h" x1="458.7" x2="458.7" y1="224" y2="736" gradientUnits="userSpaceOnUse"/><linearGradient xlink:href="#c" id="g" x1="458.7" x2="458.7" y1="220" y2="732" gradientUnits="userSpaceOnUse"/><linearGradient xlink:href="#d" id="e" x1="480" x2="480" y1="0" y2="960" gradientUnits="userSpaceOnUse"/><radialGradient xlink:href="#b" id="f" cx="480" cy="0" r="480" fx="480" fy="0" gradientTransform="matrix(-1.5 0 0 -1.5 1216 0)" gradientUnits="userSpaceOnUse"/></defs><path fill="url(#e)" d="M0 0h960v960H0z"/><!--!Font Awesome Free 6.7.2 by @fontawesome - https://fontawesome.com License - https://fontawesome.com/license/free Copyright 2025 Fonticons, Inc.--><path fill="url(#f)" d="M0 0h960v960H0z"/><path fill="url(#g)" d="M702 226c8 6 13 16 13 26v336c0 44-43 80-96 80s-96-36-96-80 43-80 96-80c11 0 22 2 32 5V367l-256 77v208c0 44-43 80-96 80s-96-36-96-80 43-80 96-80c11 0 22 2 32 5V348c0-14 9-27 22-31l320-96c10-3 21-1 29 5z"/><path fill="url(#h)" d="M702 230c8 6 13 16 13 26v336c0 44-43 80-96 80s-96-36-96-80 43-80 96-80c11 0 22 2 32 5V371l-256 77v208c0 44-43 80-96 80s-96-36-96-80 43-80 96-80c11 0 22 2 32 5V352c0-14 9-27 22-31l320-96c10-3 21-1 29 5z"/></svg>