<?xml version="1.0" encoding="UTF-8" standalone="no"?>
<svg
   viewBox="0 0 960 960"
   version="1.1"
   id="svg1"
   sodipodi:docname="cover.svg"
   width="960"
   height="960"
   inkscape:version="1.4 (e7c3feb100, 2024-10-09)"
   xmlns:inkscape="http://www.inkscape.org/namespaces/inkscape"
   xmlns:sodipodi="http://sodipodi.sourceforge.net/DTD/sodipodi-0.dtd"
   xmlns:xlink="http://www.w3.org/1999/xlink"
   xmlns="http://www.w3.org/2000/svg"
   xmlns:svg="http://www.w3.org/2000/svg">
  <defs
     id="defs1">
    <linearGradient
       id="linearGradient9"
       inkscape:collect="always">
      <stop
         style="stop-color:#4d4d4d;stop-opacity:1;"
         offset="0"
         id="stop8" />
      <stop
         style="stop-color:#212121;stop-opacity:0;"
         offset="1"
         id="stop9" />
    </linearGradient>
    <linearGradient
       id="linearGradient5"
       inkscape:collect="always">
      <stop
         style="stop-color:#eeeeee;stop-opacity:1;"
         offset="0"
         id="stop6" />
      <stop
         style="stop-color:#c7c7c7;stop-opacity:1;"
         offset="1"
         id="stop7" />
    </linearGradient>
    <linearGradient
       id="linearGradient4"
       inkscape:collect="always">
      <stop
         style="stop-color:#303030;stop-opacity:1;"
         offset="0"
         id="stop4" />
      <stop
         style="stop-color:#101010;stop-opacity:1;"
         offset="1"
         id="stop5" />
    </linearGradient>
    <linearGradient
       id="linearGradient2"
       inkscape:collect="always">
      <stop
         style="stop-color:#dddddd;stop-opacity:1;"
         offset="0"
         id="stop2" />
      <stop
         style="stop-color:#bbbbbb;stop-opacity:1;"
         offset="1"
         id="stop3" />
    </linearGradient>
    <linearGradient
       inkscape:collect="always"
       xlink:href="#linearGradient2"
       id="linearGradient3"
       x1="458.66669"
       y1="224"
       x2="458.66669"
       y2="736"
       gradientUnits="userSpaceOnUse" />
    <radialGradient
       inkscape:collect="always"
       xlink:href="#linearGradient9"
       id="radialGradient5"
       cx="480"
       cy="1.2079227e-12"
       fx="480"
       fy="1.2079227e-12"
       r="480"
       gradientUnits="userSpaceOnUse"
       gradientTransform="matrix(-1.5333896,0,0,-1.5333896,1216.027,7.9999833e-6)" />
    <linearGradient
       inkscape:collect="always"
       xlink:href="#linearGradient5"
       id="linearGradient7"
       x1="458.66669"
       y1="220"
       x2="458.66669"
       y2="732"
       gradientUnits="userSpaceOnUse" />
    <linearGradient
       inkscape:collect="always"
       xlink:href="#linearGradient4"
       id="linearGradient11"
       x1="480"
       y1="0"
       x2="480"
       y2="960"
       gradientUnits="userSpaceOnUse" />
  </defs>
  <sodipodi:namedview
     id="namedview1"
     pagecolor="#ffffff"
     bordercolor="#000000"
     borderopacity="0.25"
     inkscape:showpageshadow="2"
     inkscape:pageopacity="0.0"
     inkscape:pagecheckerboard="0"
     inkscape:deskcolor="#d1d1d1"
     inkscape:zoom="0.53033009"
     inkscape:cx="379.00923"
     inkscape:cy="472.34733"
     inkscape:window-width="1920"
     inkscape:window-height="1022"
     inkscape:window-x="0"
     inkscape:window-y="0"
     inkscape:window-maximized="1"
     inkscape:current-layer="svg1" />
  <rect
     style="display:inline;fill:url(#linearGradient11);fill-opacity:1"
     id="rect1-0"
     width="960"
     height="960"
     x="0"
     y="0" />
  <!--!Font Awesome Free 6.7.2 by @fontawesome - https://fontawesome.com License - https://fontawesome.com/license/free Copyright 2025 Fonticons, Inc.-->
  <rect
     style="fill:url(#radialGradient5);fill-opacity:1;opacity:1"
     id="rect1"
     width="960"
     height="960"
     x="0"
     y="0" />
  <path
     d="m 701.76667,226.327 c 8.1,6 12.9,15.6 12.9,25.7 v 72 264 c 0,44.2 -43,80 -96,80 -53,0 -96,-35.8 -96,-80 0,-44.2 43,-80 96,-80 11.2,0 22,1.6 32,4.6 v -145.6 l -256,76.8 v 208.2 c 0,44.2 -43,80 -96,80 -53,0 -96,-35.8 -96,-80 0,-44.2 43,-80 96,-80 11.2,0 22,1.6 32,4.6 v -156.6 -72 c 0,-14.1 9.3,-26.6 22.8,-30.7 l 320,-96 c 9.7,-2.9 20.2,-1.1 28.3,5 z"
     id="path1-1"
     style="fill:url(#linearGradient7);fill-opacity:1;opacity:1" />
  <path
     d="m 701.76667,230.327 c 8.1,6 12.9,15.6 12.9,25.7 v 72 264 c 0,44.2 -43,80 -96,80 -53,0 -96,-35.8 -96,-80 0,-44.2 43,-80 96,-80 11.2,0 22,1.6 32,4.6 v -145.6 l -256,76.8 v 208.2 c 0,44.2 -43,80 -96,80 -53,0 -96,-35.8 -96,-80 0,-44.2 43,-80 96,-80 11.2,0 22,1.6 32,4.6 v -156.6 -72 c 0,-14.1 9.3,-26.6 22.8,-30.7 l 320,-96 c 9.7,-2.9 20.2,-1.1 28.3,5 z"
     id="path1"
     style="fill:url(#linearGradient3);fill-opacity:1" />
</svg>
