<svg xmlns="http://www.w3.org/2000/svg" viewBox="0 0 509 509"><!--!Font Awesome Free 6.7.2 by @fontawesome - https://fontawesome.com License - https://fontawesome.com/license/free Copyright 2025 Fonticons, Inc.--><path d="M110.3 60.7c58.4 43.7 121.2 132.5 144.2 180.2 23-47.6 85.8-136.4 144.2-180.2C440.8 29.1 509 4.7 509 82.5c0 15.5-8.9 130.5-14.1 149.2-18.2 64.8-84.4 81.4-143.3 71.3 102.9 17.5 129.1 75.5 72.5 133.5-107.4 110.2-154.3-27.6-166.3-62.9-1.7-4.9-2.6-7.8-3.3-7.8s-1.6 3-3.3 7.8c-12 35.3-59 173.1-166.3 63-56.5-58-30.4-116 72.5-133.6-58.9 10.1-125.1-6.5-143.2-71.4C8.9 213 0 98 0 82.4 0 4.6 68.2 29 110.3 60.6z"/></svg>