<?xml version="1.0" encoding="UTF-8" standalone="no"?>
<svg
   viewBox="0 0 509 509"
   version="1.1"
   id="svg1"
   sodipodi:docname="bluesky.svg"
   width="509"
   height="509"
   inkscape:version="1.4 (e7c3feb100, 2024-10-09)"
   xmlns:inkscape="http://www.inkscape.org/namespaces/inkscape"
   xmlns:sodipodi="http://sodipodi.sourceforge.net/DTD/sodipodi-0.dtd"
   xmlns="http://www.w3.org/2000/svg"
   xmlns:svg="http://www.w3.org/2000/svg">
  <defs
     id="defs1" />
  <sodipodi:namedview
     id="namedview1"
     pagecolor="#ffffff"
     bordercolor="#000000"
     borderopacity="0.25"
     inkscape:showpageshadow="2"
     inkscape:pageopacity="0.0"
     inkscape:pagecheckerboard="0"
     inkscape:deskcolor="#d1d1d1"
     inkscape:zoom="0.80371094"
     inkscape:cx="38.571081"
     inkscape:cy="336.56379"
     inkscape:window-width="1920"
     inkscape:window-height="1022"
     inkscape:window-x="0"
     inkscape:window-y="0"
     inkscape:window-maximized="1"
     inkscape:current-layer="svg1" />
  <!--!Font Awesome Free 6.7.2 by @fontawesome - https://fontawesome.com License - https://fontawesome.com/license/free Copyright 2025 Fonticons, Inc.-->
  <path
     d="M 110.3,60.745503 C 168.7,104.4455 231.5,193.2455 254.5,240.9455 c 23,-47.6 85.8,-136.4 144.2,-180.199997 42.1,-31.6 110.3,-55.9999999 110.3,21.8 0,15.5 -8.9,130.499997 -14.1,149.199997 -18.2,64.8 -84.4,81.4 -143.3,71.3 102.9,17.5 129.1,75.5 72.5,133.5 -107.4,110.2 -154.3,-27.6 -166.3,-62.9 v 0 c -1.7,-4.9 -2.6,-7.8 -3.3,-7.8 -0.7,0 -1.6,3 -3.3,7.8 v 0 c -12,35.3 -59,173.1 -166.3,62.9 -56.5,-58 -30.4,-116 72.5,-133.5 -58.9,10.1 -125.1,-6.5 -143.2,-71.4 C 8.9,212.9455 0,97.945503 0,82.445503 c 0,-77.7999999 68.2,-53.4 110.3,-21.8 z"
     id="path1" />
</svg>
