<svg xmlns="http://www.w3.org/2000/svg" viewBox="0 0 512 512"><!--!Font Awesome Free 6.7.2 by @fontawesome - https://fontawesome.com License - https://fontawesome.com/license/free Copyright 2025 Fonticons, Inc.--><path d="M128 0C75 0 32 43 32 96v320c0 53 43 96 96 96h320a32 32 0 1 0 0-64v-64a32 32 0 0 0 32-32V32a32 32 0 0 0-32-32h-32zm0 384h256v64H128a32 32 0 1 1 0-64m32-240a16 16 0 0 1 16-16h192a16 16 0 0 1 16 16 16 16 0 0 1-16 16H176a16 16 0 0 1-16-16m16 48h192a16 16 0 0 1 16 16 16 16 0 0 1-16 16H176a16 16 0 0 1-16-16 16 16 0 0 1 16-16"/></svg>