<?xml version="1.0" encoding="UTF-8" standalone="no"?>
<svg
   viewBox="0 0 512 512"
   version="1.1"
   id="svg1"
   sodipodi:docname="book.svg"
   width="512"
   height="512"
   inkscape:version="1.4 (e7c3feb100, 2024-10-09)"
   xmlns:inkscape="http://www.inkscape.org/namespaces/inkscape"
   xmlns:sodipodi="http://sodipodi.sourceforge.net/DTD/sodipodi-0.dtd"
   xmlns="http://www.w3.org/2000/svg"
   xmlns:svg="http://www.w3.org/2000/svg">
  <defs
     id="defs1" />
  <sodipodi:namedview
     id="namedview1"
     pagecolor="#ffffff"
     bordercolor="#000000"
     borderopacity="0.25"
     inkscape:showpageshadow="2"
     inkscape:pageopacity="0.0"
     inkscape:pagecheckerboard="0"
     inkscape:deskcolor="#d1d1d1"
     inkscape:zoom="1.6074219"
     inkscape:cx="223.96112"
     inkscape:cy="256"
     inkscape:window-width="1920"
     inkscape:window-height="1022"
     inkscape:window-x="0"
     inkscape:window-y="0"
     inkscape:window-maximized="1"
     inkscape:current-layer="svg1" />
  <!--!Font Awesome Free 6.7.2 by @fontawesome - https://fontawesome.com License - https://fontawesome.com/license/free Copyright 2025 Fonticons, Inc.-->
  <path
     d="M 128,0 C 75,0 32,43 32,96 v 320 c 0,53 43,96 96,96 h 288 32 c 17.7,0 32,-14.3 32,-32 0,-17.7 -14.3,-32 -32,-32 v -64 c 17.7,0 32,-14.3 32,-32 V 32 C 480,14.3 465.7,0 448,0 h -32 z m 0,384 h 256 v 64 H 128 c -17.7,0 -32,-14.3 -32,-32 0,-17.7 14.3,-32 32,-32 z m 32,-240 c 0,-8.8 7.2,-16 16,-16 h 192 c 8.8,0 16,7.2 16,16 0,8.8 -7.2,16 -16,16 H 176 c -8.8,0 -16,-7.2 -16,-16 z m 16,48 h 192 c 8.8,0 16,7.2 16,16 0,8.8 -7.2,16 -16,16 H 176 c -8.8,0 -16,-7.2 -16,-16 0,-8.8 7.2,-16 16,-16 z"
     id="path1" />
</svg>
