<?xml version="1.0" encoding="UTF-8" standalone="no"?>
<svg
   viewBox="0 0 543.86798 543.86799"
   version="1.1"
   id="svg1"
   sodipodi:docname="brush.svg"
   width="543.86798"
   height="543.86798"
   inkscape:version="1.4 (e7c3feb100, 2024-10-09)"
   xmlns:inkscape="http://www.inkscape.org/namespaces/inkscape"
   xmlns:sodipodi="http://sodipodi.sourceforge.net/DTD/sodipodi-0.dtd"
   xmlns="http://www.w3.org/2000/svg"
   xmlns:svg="http://www.w3.org/2000/svg">
  <defs
     id="defs1" />
  <sodipodi:namedview
     id="namedview1"
     pagecolor="#ffffff"
     bordercolor="#000000"
     borderopacity="0.25"
     inkscape:showpageshadow="2"
     inkscape:pageopacity="0.0"
     inkscape:pagecheckerboard="0"
     inkscape:deskcolor="#d1d1d1"
     inkscape:zoom="1.6074219"
     inkscape:cx="256.31106"
     inkscape:cy="256"
     inkscape:window-width="1920"
     inkscape:window-height="1022"
     inkscape:window-x="0"
     inkscape:window-y="0"
     inkscape:window-maximized="1"
     inkscape:current-layer="svg1" />
  <!--!Font Awesome Free 6.7.2 by @fontawesome - https://fontawesome.com License - https://fontawesome.com/license/free Copyright 2025 Fonticons, Inc.-->
  <path
     d="m 307.30003,383.04984 c 27.3,-3.9 51.9,-19.4 67.2,-42.9 l 161.7,-250.099994 c 12.6,-19.5 9.4,-45.3 -7.6,-61.2 -17,-15.900001 -42.9,-17.300001 -61.5,-3.300001 l -236.7,177.599995 c -24,18 -38.2,46.1 -38.4,76.1 z m -19.6,25.4 -116,-104.4 c -59.8,2.2 -107.700001,51.5 -107.700001,111.9 0,3.9 0.2,7.8 0.6,11.6 1.8,17.5 -10.2,36.4 -27.8,36.4 h -4.8 c -17.7,0 -31.999999761711,14.3 -31.999999761711,32 0,17.7 14.299999761711,32 31.999999761711,32 H 176.00003 c 61.9,0 112,-50.1 112,-112 0,-2.5 -0.1,-5 -0.2,-7.5 z"
     id="path1" />
</svg>
