<svg xmlns="http://www.w3.org/2000/svg" viewBox="0 0 640 640"><!--!Font Awesome Free 6.7.2 by @fontawesome - https://fontawesome.com License - https://fontawesome.com/license/free Copyright 2025 Fonticons, Inc.--><path d="M384 160v224H64V160ZM64 96a64 64 0 0 0-64 64v224a64 64 0 0 0 64 64h117.3l-10.7 32H96a32 32 0 1 0 0 64h256a32 32 0 1 0 0-64h-74.7l-10.7-32H384a64 64 0 0 0 64-64V160a64 64 0 0 0-64-64zm464 0a48 48 0 0 0-48 48v352a48 48 0 0 0 48 48h64a48 48 0 0 0 48-48V144a48 48 0 0 0-48-48zm16 64h32a16 16 0 0 1 16 16 16 16 0 0 1-16 16h-32a16 16 0 0 1-16-16 16 16 0 0 1 16-16m-16 80a16 16 0 0 1 16-16h32a16 16 0 0 1 16 16 16 16 0 0 1-16 16h-32a16 16 0 0 1-16-16m32 160a32 32 0 1 1 0 64 32 32 0 1 1 0-64"/></svg>