<?xml version="1.0" encoding="UTF-8" standalone="no"?>
<svg
   viewBox="0 0 640 640"
   version="1.1"
   id="svg1"
   sodipodi:docname="computer.svg"
   width="640"
   height="640"
   inkscape:version="1.4 (e7c3feb100, 2024-10-09)"
   xmlns:inkscape="http://www.inkscape.org/namespaces/inkscape"
   xmlns:sodipodi="http://sodipodi.sourceforge.net/DTD/sodipodi-0.dtd"
   xmlns="http://www.w3.org/2000/svg"
   xmlns:svg="http://www.w3.org/2000/svg">
  <defs
     id="defs1" />
  <sodipodi:namedview
     id="namedview1"
     pagecolor="#ffffff"
     bordercolor="#000000"
     borderopacity="0.25"
     inkscape:showpageshadow="2"
     inkscape:pageopacity="0.0"
     inkscape:pagecheckerboard="0"
     inkscape:deskcolor="#d1d1d1"
     inkscape:zoom="1.6074219"
     inkscape:cx="319.76671"
     inkscape:cy="224.27217"
     inkscape:window-width="1920"
     inkscape:window-height="1022"
     inkscape:window-x="0"
     inkscape:window-y="0"
     inkscape:window-maximized="1"
     inkscape:current-layer="svg1" />
  <!--!Font Awesome Free 6.7.2 by @fontawesome - https://fontawesome.com License - https://fontawesome.com/license/free Copyright 2025 Fonticons, Inc.-->
  <path
     d="M 384,160 V 384 H 64 V 160 Z M 64,96 C 28.7,96 0,124.7 0,160 v 224 c 0,35.3 28.7,64 64,64 h 117.3 l -10.7,32 H 96 c -17.7,0 -32,14.3 -32,32 0,17.7 14.3,32 32,32 h 256 c 17.7,0 32,-14.3 32,-32 0,-17.7 -14.3,-32 -32,-32 H 277.3 L 266.6,448 H 384 c 35.3,0 64,-28.7 64,-64 V 160 c 0,-35.3 -28.7,-64 -64,-64 z m 464,0 c -26.5,0 -48,21.5 -48,48 v 352 c 0,26.5 21.5,48 48,48 h 64 c 26.5,0 48,-21.5 48,-48 V 144 c 0,-26.5 -21.5,-48 -48,-48 z m 16,64 h 32 c 8.8,0 16,7.2 16,16 0,8.8 -7.2,16 -16,16 h -32 c -8.8,0 -16,-7.2 -16,-16 0,-8.8 7.2,-16 16,-16 z m -16,80 c 0,-8.8 7.2,-16 16,-16 h 32 c 8.8,0 16,7.2 16,16 0,8.8 -7.2,16 -16,16 h -32 c -8.8,0 -16,-7.2 -16,-16 z m 32,160 a 32,32 0 1 1 0,64 32,32 0 1 1 0,-64 z"
     id="path1" />
</svg>
