<svg xmlns="http://www.w3.org/2000/svg" viewBox="0 0 588 588"><!--!Font Awesome Free 6.7.2 by @fontawesome - https://fontawesome.com License - https://fontawesome.com/license/free Copyright 2025 Fonticons, Inc.--><path d="m499 108-1-1a485 485 0 0 0-120-37l-2 1-15 31a448 448 0 0 0-134 0l-15-31-2-1a484 484 0 0 0-120 37l-1 1A497 497 0 0 0 2 442l1 2a488 488 0 0 0 147 74l2-1a348 348 0 0 0 30-49l-1-2a321 321 0 0 1-46-22v-3l9-7 2-1c96 44 200 44 296 0l1 1 10 7-1 3a301 301 0 0 1-46 22l-1 2a391 391 0 0 0 30 49l3 1a486 486 0 0 0 147-74l1-2c12-126-21-236-87-334M197 376c-29 0-53-27-53-60 0-32 23-59 53-59 29 0 53 27 52 59 0 33-23 60-52 60m195 0c-29 0-53-27-53-60 0-32 23-59 53-59s53 27 53 59c0 33-23 60-53 60"/></svg>