<svg xmlns="http://www.w3.org/2000/svg" viewBox="0 0 512 512"><!--!Font Awesome Free 6.7.2 by @fontawesome - https://fontawesome.com License - https://fontawesome.com/license/free Copyright 2025 Fonticons, Inc.--><path d="m226 367-19-51s-30 34-76 34c-41 0-69-35-69-91 0-72 36-98 72-98 66 0 74 53 101 135 18 57 54 102 155 102 73 0 122-22 122-81 0-73-63-80-115-92-26-6-33-16-33-34q1-30 41-31 43-1 46 35l59-7c-5-52-42-74-101-74-53 0-105 20-105 84 0 40 20 65 68 77 45 10 80 13 80 45q0 32-61 31c-59 0-84-31-98-74-32-97-43-163-161-163C46 114 0 168 0 261c0 89 46 137 128 137 66 0 98-31 98-31"/></svg>