<svg xmlns="http://www.w3.org/2000/svg" viewBox="0 0 512 512"><!--!Font Awesome Free 6.7.2 by @fontawesome - https://fontawesome.com License - https://fontawesome.com/license/free Copyright 2025 Fonticons, Inc.--><path d="M96 96c0-35 29-64 64-64h288c35 0 64 29 64 64v320c0 35-29 64-64 64H80c-44 0-80-36-80-80V128a32 32 0 1 1 64 0v272q1 15 16 16 15-1 16-16zm64 24v80c0 13 11 24 24 24h112c13 0 24-11 24-24v-80c0-13-11-24-24-24H184c-13 0-24 11-24 24m208-8q1 15 16 16h48q15-1 16-16-1-15-16-16h-48q-15 1-16 16m0 96q1 15 16 16h48q15-1 16-16-1-15-16-16h-48q-15 1-16 16m-208 96q1 15 16 16h256q15-1 16-16-1-15-16-16H176q-15 1-16 16m0 96q1 15 16 16h256q15-1 16-16-1-15-16-16H176q-15 1-16 16"/></svg>