<?xml version="1.0" encoding="UTF-8" standalone="no"?>
<svg
   id="Layer_2"
   data-name="Layer 2"
   viewBox="0 0 191.6294 203.64"
   version="1.1"
   sodipodi:docname="VRChat_Logo.svg"
   width="191.62939"
   height="203.64"
   inkscape:version="1.4.2 (ebf0e940d0, 2025-05-08)"
   xmlns:inkscape="http://www.inkscape.org/namespaces/inkscape"
   xmlns:sodipodi="http://sodipodi.sourceforge.net/DTD/sodipodi-0.dtd"
   xmlns="http://www.w3.org/2000/svg"
   xmlns:svg="http://www.w3.org/2000/svg">
  <sodipodi:namedview
     id="namedview6"
     pagecolor="#ffffff"
     bordercolor="#000000"
     borderopacity="0.25"
     inkscape:showpageshadow="2"
     inkscape:pageopacity="0.0"
     inkscape:pagecheckerboard="0"
     inkscape:deskcolor="#d1d1d1"
     inkscape:zoom="1.4998319"
     inkscape:cx="27.669768"
     inkscape:cy="93.677167"
     inkscape:window-width="1920"
     inkscape:window-height="1022"
     inkscape:window-x="0"
     inkscape:window-y="0"
     inkscape:window-maximized="1"
     inkscape:current-layer="Logo" />
  <defs
     id="defs1">
    <style
       id="style1">.cls-1,.cls-2{fill:#000;stroke-width:0}.cls-2{fill:#fff}</style>
  </defs>
  <g
     id="Logo"
     transform="translate(-312.7206,-10.68)">
    <path
       class="cls-2"
       d="m 447.5206,52.81 h -13.61 v 26.35 h 13.61 c 8.04,0 13.24,-3.33 13.24,-13.11 0,-9.78 -5.19,-13.24 -13.24,-13.24 z"
       id="path1"
       sodipodi:nodetypes="sccsss"
       style="fill:#000000;fill-opacity:1" />
    <path
       class="cls-2"
       d="M 487.19,10.68 H 329.8806 c -9.48,0 -17.16,7.68 -17.16,17.16 v 112.85 c 0,9.48 7.67,17.16 17.16,17.16 H 430.59 l 39.97,51.44 c 2.61,3.35 4.97,5.03 6.67,5.03 1.7,0 2.75,-1.66 2.76,-4.98 l -0.07,-50.82 v -0.67 h 7.27 c 9.47,0 17.16,-7.68 17.16,-17.16 V 27.84 c 0,-9.47 -7.68,-17.16 -17.16,-17.16 z m -79.3794,35.95 -23.75,77.8 c -1.11,3.71 -5.69,5.44 -10.39,5.44 -4.7,0 -9.15,-1.73 -10.39,-5.44 l -23.87,-77.8 c -0.12,-0.5 -0.25,-0.99 -0.25,-1.24 0,-3.96 5.82,-6.68 10.14,-6.68 2.72,0 4.82,0.86 5.44,3.22 l 18.93,67.04 18.8,-67.04 c 0.62,-2.35 2.72,-3.22 5.44,-3.22 4.33,0 10.14,2.85 10.14,6.68 0,0.37 -0.12,0.74 -0.25,1.24 z m 59.61,83.13 c -2.22,0 -4.33,-1.36 -5.57,-3.83 l -17.57,-34.14 h -10.39 v 32.29 c 0,3.33 -3.96,5.07 -8.04,5.07 -4.08,0 -8.04,-1.73 -8.04,-5.07 V 43.66 h 0.01 c 0,-2.6 2.1,-4.95 5.19,-4.95 h 24.49 c 16.21,0 29.32,6.18 29.32,25.86 0,14.22 -6.93,21.89 -16.21,24.74 l 16.21,30.05 c 0.5,0.62 0.61,1.49 0.61,1.98 0,4.08 -5.32,8.41 -10.01,8.41 z M 477.9,120.17 c 0,9.47 -26.64,17.16 -17.16,17.16 53.4239,-3.1457 33.09172,11.4354 25.5306,-17.16 V 47.68 C 507.15257,19.718559 501.10942,30.52 460.74,30.52 c -9.47,0 17.16,7.68 17.16,17.16 z"
       id="path2"
       sodipodi:nodetypes="sssssccscccssssccsccsscccssccccccsssccsssccsccsssssss"
       style="fill:#000000;fill-opacity:1" />
  </g>
</svg>
