<svg xmlns="http://www.w3.org/2000/svg" data-name="Layer 2" viewBox="0 0 191.6 203.6"><path d="M134.8 42.1h-13.5v26.4h13.6c8 0 13.3-3.4 13.3-13.2s-5.2-13.2-13.3-13.2" class="cls-2"/><path d="M174.5 0H17.2C7.7 0 0 7.7 0 17.1V130c0 9.5 7.7 17.2 17.2 17.2h100.7l40 51.4q4 5 6.6 5 2.7 0 2.8-5v-51.3h7.2c9.5 0 17.1-7.7 17.1-17.2v-113A17 17 0 0 0 174.5 0M95.1 36l-23.7 77.7c-1.1 3.7-5.7 5.5-10.4 5.5s-9.2-1.8-10.4-5.5L26.7 35.9l-.2-1.2c0-4 5.8-6.7 10.1-6.7 2.7 0 4.8.9 5.4 3.2l19 67 18.8-67c.6-2.3 2.7-3.2 5.4-3.2 4.3 0 10.2 2.9 10.2 6.7zm59.6 83q-3.5 0-5.5-3.8l-17.6-34.1h-10.4v32.2c0 3.3-4 5-8 5s-8-1.7-8-5V33a5 5 0 0 1 5.1-5h24.5c16.2 0 29.3 6.2 29.3 25.9 0 14.2-7 21.9-16.2 24.7l16.2 30q.7 1.1.6 2c0 4.1-5.3 8.4-10 8.4m10.5-9.5c0 9.4-26.6 17.1-17.2 17.1 53.5-3.1 33.1 11.5 25.6-17.1V37c20.9-28 14.8-17.2-25.6-17.2-9.4 0 17.2 7.7 17.2 17.2z" class="cls-2"/></svg>