<?xml version="1.0" encoding="UTF-8" standalone="no"?>
<svg
   viewBox="0 0 546.20001 546.20001"
   version="1.1"
   id="svg1"
   sodipodi:docname="youtube.svg"
   width="546.20001"
   height="546.20001"
   inkscape:version="1.4 (e7c3feb100, 2024-10-09)"
   xmlns:inkscape="http://www.inkscape.org/namespaces/inkscape"
   xmlns:sodipodi="http://sodipodi.sourceforge.net/DTD/sodipodi-0.dtd"
   xmlns="http://www.w3.org/2000/svg"
   xmlns:svg="http://www.w3.org/2000/svg">
  <defs
     id="defs1" />
  <sodipodi:namedview
     id="namedview1"
     pagecolor="#ffffff"
     bordercolor="#000000"
     borderopacity="0.25"
     inkscape:showpageshadow="2"
     inkscape:pageopacity="0.0"
     inkscape:pagecheckerboard="0"
     inkscape:deskcolor="#d1d1d1"
     inkscape:zoom="1.1366189"
     inkscape:cx="168.92205"
     inkscape:cy="235.34713"
     inkscape:window-width="1920"
     inkscape:window-height="1022"
     inkscape:window-x="0"
     inkscape:window-y="0"
     inkscape:window-maximized="1"
     inkscape:current-layer="svg1" />
  <!--!Font Awesome Free 6.7.2 by @fontawesome - https://fontawesome.com License - https://fontawesome.com/license/free Copyright 2025 Fonticons, Inc.-->
  <path
     d="m 534.80001,141.20001 c -6.3,-23.7 -24.8,-42.300004 -48.3,-48.600004 -42.6,-11.500004 -213.4,-11.500004 -213.4,-11.500004 0,0 -170.80001,0 -213.400006,11.500004 -23.5,6.3 -42,24.900004 -48.3,48.600004 -11.4000003964843,42.9 -11.4000003964843,132.3 -11.4000003964843,132.3 0,0 0,89.4 11.4000003964843,132.3 6.3,23.7 24.8,41.5 48.3,47.8 42.599996,11.5 213.400006,11.5 213.400006,11.5 0,0 170.8,0 213.4,-11.5 23.5,-6.3 42,-24.2 48.3,-47.8 11.4,-42.9 11.4,-132.3 11.4,-132.3 0,0 0,-89.4 -11.4,-132.3 z m -317.5,213.5 v -162.4 l 142.7,81.2 z"
     id="path1" />
</svg>
